PathFileType	4	(X/Y/Z)	C:/Users/beibeiliu/ov580/test_trc\sequence.32_training_dense_right.trc
DataRate	CameraRate	NumFrames	NumMarkers	Units	OrigDataRate	OrigDataStartFrame	OrigNumFrames
120	120	8	19	mm	120	1	200
Frame#	Time	ThumbCMC			ThumbMCP			ThumbIP			ThumbTip			IndexMCP			IndexPIP			IndexTip			MiddleMCP			MiddlePIP			MiddleTip			RingMCP			RingPIP			RingTip			PinkyMCP			PinkyPIP			PinkyTip			BackHand1			BackHand2			BackHand3	
		X0	Y0	Z0	X1	Y1	Z1	X2	Y2	Z2	X3	Y3	Z3	X4	Y4	Z4	X5	Y5	Z5	X6	Y6	Z6	X7	Y7	Z7	X8	Y8	Z8	X9	Y9	Z9	X10	Y10	Z10	X11	Y11	Z11	X12	Y12	Z12	X13	Y13	Z13	X14	Y14	Z14	X15	Y15	Z15	X16	Y16	Z16	X17	Y17	Z17	X18	Y18	Z18	
0	0	105.904	57.6401	2.74098	117.423	65.9811	-23.0421	117.278	68.1949	-47.0053	120.166	70.4357	-64.2897	72.5578	68.0961	-57.9267	62.5482	96.5502	-59.4276	63.4621	117.738	-47.5468	52.2318	49.3805	-58.0747	45.6151	58.0753	-79.162	30.7106	66.2297	-99.6515	39.8334	41.3417	-43.3088	28.3788	39.5875	-62.9039	15.2463	37.537	-80.8529	29.2427	40.5817	-22.0159	15.1734	34.1628	-31.5656	3.16811	25.6758	-38.7874	60.3868	34.9502	-6.85922	72.7999	28.4544	16.8918	89.6629	35.8586	-4.16797	
1	0.00833333	108.571	48.1573	0.176934	115.387	56.266	-18.3871	118.277	56.1873	-45.1717	127.022	60.2063	-59.286	78.0745	54.848	-57.0612	69.3152	82.3696	-65.6028	63.2318	105.088	-50.3946	61.0523	38.5965	-57.1999	50.6775	47.2052	-82.3597	37.4284	53.9186	-102.04	44.6789	31.6849	-46.3207	29.3141	32.3955	-59.6396	20.1642	37.9681	-83.267	33.0092	31.7159	-22.7376	17.9224	25.0277	-34.3847	7.3998	18.0029	-47.7291	63.4551	25.4093	-5.03161	74.152	20.304	19.138	92.2943	25.2727	-4.48928	
2	0.0166667	113.539	35.8254	9.37777	117.573	41.6953	-16.1118	123.432	42.1061	-40.0397	128.119	43.2636	-55.6366	83.4128	38.3841	-54.9725	78.8122	59.9728	-69.0669	68.7183	85.5407	-63.8725	62.9934	26.4701	-58.2093	55.9253	33.4954	-78.9585	42.1812	41.3443	-100.468	44.5383	24.1025	-41.797	35.2418	31.9481	-59.5427	25.0826	48.0957	-76.8341	34.7457	20.6199	-22.0935	21.7656	19.4832	-32.2855	12.3823	13.2718	-44.9682	63.8667	13.0155	-1.98859	71.3414	7.26145	21.6657	92.4515	11.4051	2.26515	
3	0.025	114.659	23.4473	12.9293	123.254	30.3128	-7.25098	125.931	29.4852	-34.0456	133.627	32.0718	-50.2374	89.5761	23.3552	-48.8866	83.6543	43.7048	-70.7752	74.2275	65.4115	-76.7556	60.8882	16.2833	-49.1659	53.3454	24.1292	-72.7736	42.7332	31.6187	-92.2261	46.7161	22.8826	-39.8961	37.6973	41.317	-55.5989	38.5934	63.9037	-62.6442	35.9224	16.5795	-17.5615	25.5473	17.95	-28.7707	11.105	12.5262	-45.3219	65.9947	3.37591	2.70341	71.7294	1.42717	30.126	94.0755	2.85745	4.45185	
4	0.0333333	114.398	17.3716	17.1602	122.034	24.7252	-2.1059	127.149	24.9931	-26.7681	133.159	27.4144	-45.1037	87.5351	16.9745	-46.6292	87.294	28.8454	-66.9346	78.533	48.9419	-81.0038	65.1316	12.9577	-42.2369	54.49	22.0885	-67.9978	45.55	28.1934	-86.951	49.4596	25.2519	-30.4921	45.8938	49.982	-47.7878	49.768	74.8811	-48.1796	34.8695	19.0456	-11.1034	23.3097	20.4278	-29.4354	12.0261	19.1497	-43.2521	63.7169	2.35917	11.0131	66.2028	-2.38459	35.932	87.4478	-1.09551	15.1169	
5	0.0416667	111.938	20.2553	20.4665	118.722	27.4559	1.77868	124.573	29.4234	-18.4869	130.754	31.0034	-37.8997	89.9635	20.9798	-41.5317	82.152	35.3568	-63.533	84.1923	60.2374	-76.4307	61.9235	17.7663	-38.1002	52.7675	25.657	-60.8386	46.5239	34.4825	-82.0793	49.3683	31.1279	-30.6859	43.5617	52.8936	-42.4818	53.3582	75.6596	-42.2984	31.5729	23.9666	-10.8591	26.3457	25.9614	-24.6239	10.3617	24.1626	-41.3572	57.232	7.27675	12.6196	65.9019	2.36306	35.6926	84.9631	2.20915	14.6988	
6	0.05	109.5	25.681	24.6876	121.963	31.4298	5.20965	128.14	32.0393	-19.0837	133.713	35.3953	-35.5402	88.7911	29.1545	-39.1314	86.8954	51.1823	-57.903	80.4176	77.349	-53.4079	66.047	22.369	-38.6865	57.6444	31.7748	-60.6636	48.9236	43.5446	-82.2197	46.1514	29.7644	-28.7059	41.3128	48.7804	-45.3187	45.8302	72.6315	-49.4623	35.8184	26.7078	-7.7462	21.7815	28.9995	-23.5425	10.5344	27.2672	-41.0986	61.8223	9.93628	15.9259	68.4177	6.11158	38.841	87.6214	7.05512	16.9203	
7	0.0583333	111.31	29.9696	29.8285	121.808	34.5208	6.20501	127.19	35.1797	-16.8096	133.334	36.6701	-36.1619	91.9334	37.2822	-38.6337	85.1653	65.7919	-46.3212	85.3073	88.8783	-29.3761	66.7418	26.1598	-40.3255	61.6416	35.6123	-63.0215	51.2065	49.282	-86.4072	46.839	25.5097	-28.8737	39.0761	35.7858	-50.1881	41.6185	52.1977	-65.5613	36.5774	27.2391	-6.97711	26.0118	27.7712	-22.4932	10.8816	24.9148	-38.864	62.3024	11.8068	11.2669	67.7722	7.97628	40.5634	90.9534	9.2219	20.0299	
